HIERARCHY
ROOT root
{
	OFFSET 0.000000 0.054209 0.736571
	CHANNELS 6 Xposition Yposition Zposition Xrotation Yrotation Zrotation
	JOINT spine04
	{
		OFFSET 0.000000 -0.030951 0.078754
		CHANNELS 6 Xposition Yposition Zposition Xrotation Yrotation Zrotation
		JOINT spine02
		{
			OFFSET 0.000000 -0.000238 0.104623
			CHANNELS 6 Xposition Yposition Zposition Xrotation Yrotation Zrotation
			JOINT spine01
			{
				OFFSET 0.000000 0.017421 0.109292
				CHANNELS 3 Xrotation Yrotation Zrotation
				JOINT neck01
				{
					OFFSET 0.000000 -0.049753 0.167208
					CHANNELS 6 Xposition Yposition Zposition Xrotation Yrotation Zrotation
					JOINT neck02
					{
						OFFSET 0.000000 0.005512 0.021216
						CHANNELS 3 Xrotation Yrotation Zrotation
						JOINT jaw
						{
							OFFSET 0.000000 -0.043572 0.063270
							CHANNELS 6 Xposition Yposition Zposition Xrotation Yrotation Zrotation
							End Site
							{
								OFFSET 0.000000 -0.008974 0.006556
							}
						}
						JOINT eye.L
						{
							OFFSET 0.023674 -0.098121 0.090003
							CHANNELS 3 Xrotation Yrotation Zrotation
							End Site
							{
								OFFSET 0.001819 -0.030370 -0.004421
							}
						}
						JOINT orbicularis03.L
						{
							OFFSET 0.023674 -0.098121 0.090003
							CHANNELS 3 Xrotation Yrotation Zrotation
							End Site
							{
								OFFSET 0.001761 -0.029014 0.005250
							}
						}
						JOINT eye.R
						{
							OFFSET -0.023674 -0.098121 0.090003
							CHANNELS 3 Xrotation Yrotation Zrotation
							End Site
							{
								OFFSET -0.001819 -0.030370 -0.004421
							}
						}
						JOINT orbicularis03.R
						{
							OFFSET -0.023674 -0.098121 0.090003
							CHANNELS 3 Xrotation Yrotation Zrotation
							End Site
							{
								OFFSET -0.001761 -0.029014 0.005250
							}
						}
						End Site
						{
							OFFSET 0.000000 0.005512 0.021217
						}
					}
				}
				JOINT clavicle.R
				{
					OFFSET -0.018367 -0.058464 0.107155
					CHANNELS 6 Xposition Yposition Zposition Xrotation Yrotation Zrotation
					JOINT upperarm01.R
					{
						OFFSET -0.132020 0.003642 -0.024313
						CHANNELS 6 Xposition Yposition Zposition Xrotation Yrotation Zrotation
						JOINT lowerarm01.R
						{
							OFFSET -0.133637 0.001770 -0.153088
							CHANNELS 6 Xposition Yposition Zposition Xrotation Yrotation Zrotation
							JOINT wrist.R
							{
								OFFSET -0.108574 -0.154815 -0.103768
								CHANNELS 6 Xposition Yposition Zposition Xrotation Yrotation Zrotation
								JOINT finger2-1.R
								{
									OFFSET -0.024321 -0.084906 -0.032804
									CHANNELS 3 Xrotation Yrotation Zrotation
									JOINT finger2-2.R
									{
										OFFSET -0.002927 -0.018838 -0.012653
										CHANNELS 3 Xrotation Yrotation Zrotation
										JOINT finger2-3.R
										{
											OFFSET 0.000460 -0.015088 -0.013862
											CHANNELS 3 Xrotation Yrotation Zrotation
											End Site
											{
												OFFSET 0.003042 -0.016083 -0.016987
											}
										}
									}
								}
								JOINT finger3-1.R
								{
									OFFSET -0.038828 -0.069770 -0.043127
									CHANNELS 3 Xrotation Yrotation Zrotation
									JOINT finger3-2.R
									{
										OFFSET -0.006387 -0.018854 -0.022184
										CHANNELS 3 Xrotation Yrotation Zrotation
										JOINT finger3-3.R
										{
											OFFSET -0.002379 -0.015757 -0.018305
											CHANNELS 3 Xrotation Yrotation Zrotation
											End Site
											{
												OFFSET 0.000156 -0.013802 -0.019326
											}
										}
									}
								}
								JOINT finger4-1.R
								{
									OFFSET -0.045586 -0.054771 -0.050312
									CHANNELS 3 Xrotation Yrotation Zrotation
									JOINT finger4-2.R
									{
										OFFSET -0.008217 -0.013209 -0.021152
										CHANNELS 3 Xrotation Yrotation Zrotation
										JOINT finger4-3.R
										{
											OFFSET -0.003838 -0.011895 -0.018031
											CHANNELS 3 Xrotation Yrotation Zrotation
											End Site
											{
												OFFSET -0.002024 -0.010563 -0.020894
											}
										}
									}
								}
								JOINT finger5-1.R
								{
									OFFSET -0.046820 -0.037780 -0.058682
									CHANNELS 3 Xrotation Yrotation Zrotation
									JOINT finger5-2.R
									{
										OFFSET -0.005233 -0.007322 -0.016539
										CHANNELS 3 Xrotation Yrotation Zrotation
										JOINT finger5-3.R
										{
											OFFSET -0.001524 -0.005484 -0.012548
											CHANNELS 3 Xrotation Yrotation Zrotation
											End Site
											{
												OFFSET -0.002248 -0.006725 -0.016024
											}
										}
									}
								}
								JOINT finger1-1.R
								{
									OFFSET -0.000927 -0.039280 -0.005363
									CHANNELS 3 Xrotation Yrotation Zrotation
									JOINT finger1-2.R
									{
										OFFSET 0.018386 -0.018805 -0.006894
										CHANNELS 3 Xrotation Yrotation Zrotation
										JOINT finger1-3.R
										{
											OFFSET 0.010991 -0.028095 -0.011249
											CHANNELS 3 Xrotation Yrotation Zrotation
											End Site
											{
												OFFSET 0.004840 -0.019091 -0.014527
											}
										}
									}
								}
							}
						}
					}
				}
				JOINT clavicle.L
				{
					OFFSET 0.018367 -0.058464 0.107155
					CHANNELS 6 Xposition Yposition Zposition Xrotation Yrotation Zrotation
					JOINT upperarm01.L
					{
						OFFSET 0.132020 0.003642 -0.024313
						CHANNELS 6 Xposition Yposition Zposition Xrotation Yrotation Zrotation
						JOINT lowerarm01.L
						{
							OFFSET 0.133637 0.001770 -0.153088
							CHANNELS 6 Xposition Yposition Zposition Xrotation Yrotation Zrotation
							JOINT wrist.L
							{
								OFFSET 0.108574 -0.154814 -0.103768
								CHANNELS 6 Xposition Yposition Zposition Xrotation Yrotation Zrotation
								JOINT finger2-1.L
								{
									OFFSET 0.024321 -0.084906 -0.032804
									CHANNELS 3 Xrotation Yrotation Zrotation
									JOINT finger2-2.L
									{
										OFFSET 0.002927 -0.018838 -0.012653
										CHANNELS 3 Xrotation Yrotation Zrotation
										JOINT finger2-3.L
										{
											OFFSET -0.000460 -0.015088 -0.013862
											CHANNELS 3 Xrotation Yrotation Zrotation
											End Site
											{
												OFFSET -0.003042 -0.016083 -0.016987
											}
										}
									}
								}
								JOINT finger3-1.L
								{
									OFFSET 0.038828 -0.069770 -0.043127
									CHANNELS 3 Xrotation Yrotation Zrotation
									JOINT finger3-2.L
									{
										OFFSET 0.006387 -0.018854 -0.022184
										CHANNELS 3 Xrotation Yrotation Zrotation
										JOINT finger3-3.L
										{
											OFFSET 0.002379 -0.015757 -0.018305
											CHANNELS 3 Xrotation Yrotation Zrotation
											End Site
											{
												OFFSET -0.000156 -0.013802 -0.019326
											}
										}
									}
								}
								JOINT finger4-1.L
								{
									OFFSET 0.045586 -0.054771 -0.050312
									CHANNELS 3 Xrotation Yrotation Zrotation
									JOINT finger4-2.L
									{
										OFFSET 0.008217 -0.013209 -0.021152
										CHANNELS 3 Xrotation Yrotation Zrotation
										JOINT finger4-3.L
										{
											OFFSET 0.003838 -0.011894 -0.018031
											CHANNELS 3 Xrotation Yrotation Zrotation
											End Site
											{
												OFFSET 0.002024 -0.010563 -0.020894
											}
										}
									}
								}
								JOINT finger5-1.L
								{
									OFFSET 0.046820 -0.037780 -0.058682
									CHANNELS 3 Xrotation Yrotation Zrotation
									JOINT finger5-2.L
									{
										OFFSET 0.005234 -0.007322 -0.016539
										CHANNELS 3 Xrotation Yrotation Zrotation
										JOINT finger5-3.L
										{
											OFFSET 0.001524 -0.005484 -0.012548
											CHANNELS 3 Xrotation Yrotation Zrotation
											End Site
											{
												OFFSET 0.002248 -0.006725 -0.016024
											}
										}
									}
								}
								JOINT finger1-1.L
								{
									OFFSET 0.000927 -0.039280 -0.005363
									CHANNELS 3 Xrotation Yrotation Zrotation
									JOINT finger1-2.L
									{
										OFFSET -0.018386 -0.018805 -0.006894
										CHANNELS 3 Xrotation Yrotation Zrotation
										JOINT finger1-3.L
										{
											OFFSET -0.010991 -0.028095 -0.011249
											CHANNELS 3 Xrotation Yrotation Zrotation
											End Site
											{
												OFFSET -0.004839 -0.019091 -0.014527
											}
										}
									}
								}
							}
						}
					}
				}
			}
		}
	}
	JOINT upperleg01.R
	{
		OFFSET -0.087495 -0.048056 0.004242
		CHANNELS 6 Xposition Yposition Zposition Xrotation Yrotation Zrotation
		JOINT lowerleg01.R
		{
			OFFSET -0.034522 -0.027831 -0.333803
			CHANNELS 6 Xposition Yposition Zposition Xrotation Yrotation Zrotation
			JOINT foot.R
			{
				OFFSET -0.037458 0.009413 -0.349633
				CHANNELS 3 Xrotation Yrotation Zrotation
				JOINT toe1-1.R
				{
					OFFSET -0.003290 -0.101211 -0.050981
					CHANNELS 6 Xposition Yposition Zposition Xrotation Yrotation Zrotation
					End Site
					{
						OFFSET 0.000524 -0.066142 0.003009
					}
				}
			}
		}
	}
	JOINT upperleg01.L
	{
		OFFSET 0.087495 -0.048056 0.004242
		CHANNELS 6 Xposition Yposition Zposition Xrotation Yrotation Zrotation
		JOINT lowerleg01.L
		{
			OFFSET 0.034522 -0.027831 -0.333803
			CHANNELS 6 Xposition Yposition Zposition Xrotation Yrotation Zrotation
			JOINT foot.L
			{
				OFFSET 0.037458 0.009413 -0.349633
				CHANNELS 3 Xrotation Yrotation Zrotation
				JOINT toe1-1.L
				{
					OFFSET 0.003290 -0.101211 -0.050981
					CHANNELS 6 Xposition Yposition Zposition Xrotation Yrotation Zrotation
					End Site
					{
						OFFSET -0.000524 -0.066142 0.003009
					}
				}
			}
		}
	}
}
MOTION
Frames: 4
Frame Time:	0.016667
0 0.0542 0.7366 0 0 0 0 -0.0506 0.0788 0 0 0 0 -0.0232 0.1046 0 0 0 0 0 0 0 -0.0498 0.1672 0 0 0 0 0 0 0 -0.0436 0.0633 0 0 0 0 0 0 0 0 0 0 0 0 0 0 0 -0.0184 -0.0585 0.1072 0 0 0 -0.1356 -0.0037 -0.0169 0 0 0 -0.1336 0.0018 -0.1531 0 0 0 -0.1086 -0.1548 -0.1038 0 0 0 0 0 0 0 0 0 0 0 0 0 0 0 0 0 0 0 0 0 0 0 0 0 0 0 0 0 0 0 0 0 0 0 0 0 0 0 0 0 0 0 0 0 0 0 0 0.0184 -0.0585 0.1072 0 0 0 0.1356 -0.0037 -0.0169 0 0 0 0.1336 0.0018 -0.1531 0 0 0 0.1086 -0.1548 -0.1038 0 0 0 0 0 0 0 0 0 0 0 0 0 0 0 0 0 0 0 0 0 0 0 0 0 0 0 0 0 0 0 0 0 0 0 0 0 0 0 0 0 0 0 0 0 0 0 0 -0.0875 -0.0481 0.0042 0 0 0 -0.0345 -0.0278 -0.3338 0 0 0 0 0 0 -0.0033 -0.1012 -0.051 0 0 0 0.0875 -0.0481 0.0042 0 0 0 0.0345 -0.0278 -0.3338 0 0 0 0 0 0 0.0033 -0.1012 -0.051 0 0 0 
0.3746 -0.0596 0.7278 -2.8028 -0.1112 -76.1785 -0.0002 -0.0346 0.0751 1.0291 0.5676 0.6059 -0.0002 -0.0027 0.1008 1.7185 0.4136 0.658 0 0 0 0 -0.0443 0.1628 15.7806 0.8548 4.3306 -0.6092 -1.5611 5.9551 0 -0.0436 0.0633 0 0 0 4.5777 -0.2604 -6.507 0 0 0 4.7059 -0.2378 -5.7818 0 0 0.0001 -0.0184 -0.0571 0.1062 0.3436 -4.6079 -2.6005 -0.1356 -0.0037 -0.0169 29.8168 -9.3155 4.8054 -0.1336 0.0017 -0.153 -41.0295 -28.7146 64.1218 -0.1085 -0.1548 -0.1036 10.8058 21.8555 -19.9485 45.8157 -24.4332 36.2652 48.2041 -17.6498 41.3943 54.9772 -16.5391 46.5618 15.5962 -23.268 22.2158 35.3365 -30.2755 32.3296 32.8933 -29.9234 30.9731 29.962 -37.649 37.386 52.6081 -43.0437 47.4952 50.3543 -43.9169 48.291 4.4267 -31.5242 16.5211 24.8782 -37.6465 16.5387 29.5038 -41.4843 22.2465 -13.5524 -38.672 -24.1905 16.0465 15.5162 -40.5499 10.5594 22.7 -51.9633 0.0184 -0.0571 0.1062 -0.2932 3.3023 -1.559 0.1356 -0.0037 -0.0169 29.5915 19.1661 -16.0517 0.1336 0.0017 -0.1531 1.3089 3.4479 -20.7658 0.1086 -0.1548 -0.1038 -6.4253 -53.7585 -14.0811 40.5122 24.0525 -30.1995 45.0111 17.4109 -38.7969 49.9665 16.8811 -42.3878 -4.5075 5.3394 -2.8648 14.1519 17.8228 -9.6288 11.9533 16.9115 -8.6539 -9.5399 2.0961 -3.3514 10.9969 17.0581 -4.165 7.515 17.2789 -4.7489 -12.9664 7.9218 -3.804 8.8424 16.948 -0.6746 10.8797 21.8837 -3.8325 -8.987 33.6416 21.2633 20.0309 -14.3956 39.8643 14.0502 -20.2544 51.6687 -0.0875 -0.0481 0.0042 -6.9674 4.4766 -20.5551 -0.0345 -0.0278 -0.3338 18.528 3.4711 -2.4562 -11.8016 -3.2289 -7.8208 -0.0033 -0.1012 -0.051 0 0 0 0.0875 -0.0481 0.0042 -7.2194 7.0932 1.8827 0.0345 -0.0278 -0.3338 10.0653 -0.3266 1.0981 -3.5341 -2.6699 1.057 0.0033 -0.1012 -0.051 0 0 0 
0.3746 -0.0596 0.7278 -2.8028 -0.1111 -76.1785 -0.0002 -0.0346 0.0751 1.0291 0.5676 0.6059 -0.0002 -0.0027 0.1008 1.7185 0.4136 0.658 0 0 0 0 -0.0443 0.1628 15.7806 0.8548 4.3306 -0.6092 -1.5611 5.9551 0 -0.0436 0.0633 0 0 0 4.5777 -0.2604 -6.507 0 0 0 4.7059 -0.2378 -5.7818 0 0 0 -0.0184 -0.0571 0.1062 0.3436 -4.6079 -2.6005 -0.1356 -0.0037 -0.0169 29.8167 -9.3156 4.8054 -0.1336 0.0017 -0.153 -41.0295 -28.7146 64.1218 -0.1085 -0.1548 -0.1036 10.8058 21.8555 -19.9485 45.8157 -24.4332 36.2651 48.2041 -17.6498 41.3944 54.9772 -16.5391 46.5618 15.5962 -23.268 22.2158 35.3365 -30.2755 32.3296 32.8933 -29.9234 30.9731 29.9619 -37.649 37.386 52.6081 -43.0437 47.4952 50.3543 -43.9169 48.291 4.4267 -31.5242 16.5211 24.8782 -37.6465 16.5387 29.5038 -41.4844 22.2466 -13.5524 -38.672 -24.1905 16.0465 15.5163 -40.5499 10.5594 22.7 -51.9633 0.0184 -0.0571 0.1062 -0.2931 3.3022 -1.559 0.1356 -0.0037 -0.0169 29.5915 19.1662 -16.0518 0.1336 0.0017 -0.1531 1.3089 3.4478 -20.7658 0.1086 -0.1548 -0.1038 -6.4253 -53.7585 -14.0811 40.5122 24.0525 -30.1995 45.0111 17.4109 -38.7969 49.9665 16.8811 -42.3878 -4.5075 5.3394 -2.8649 14.1519 17.8228 -9.6289 11.9533 16.9115 -8.6538 -9.5399 2.0961 -3.3515 10.9969 17.0581 -4.165 7.515 17.2788 -4.7489 -12.9664 7.9218 -3.804 8.8424 16.948 -0.6746 10.8797 21.8837 -3.8325 -8.987 33.6416 21.2632 20.0309 -14.3956 39.8643 14.0502 -20.2544 51.6687 -0.0875 -0.0481 0.0042 -6.9674 4.4766 -20.5551 -0.0345 -0.0278 -0.3338 18.528 3.4711 -2.4562 -11.8016 -3.2289 -7.8208 -0.0033 -0.1012 -0.051 0 0 0 0.0875 -0.0481 0.0042 -7.2194 7.0932 1.8827 0.0345 -0.0278 -0.3338 10.0653 -0.3266 1.0981 -3.5341 -2.6699 1.057 0.0033 -0.1012 -0.051 0 0 0 
0.3746 -0.0596 0.7278 -2.8028 -0.1111 -76.1785 -0.0002 -0.0346 0.0751 1.0291 0.5676 0.6059 -0.0002 -0.0027 0.1008 1.7185 0.4136 0.658 0 0 0 0 -0.0443 0.1628 15.7806 0.8548 4.3306 -0.6092 -1.5611 5.9551 0 -0.0436 0.0633 0 0 0 4.5777 -0.2604 -6.507 0 0 0 4.7059 -0.2378 -5.7818 0 0 0.0001 -0.0184 -0.0571 0.1062 0.3436 -4.6079 -2.6005 -0.1356 -0.0037 -0.0169 29.8167 -9.3155 4.8054 -0.1336 0.0017 -0.153 -41.0295 -28.7146 64.1218 -0.1085 -0.1548 -0.1036 10.8058 21.8555 -19.9485 45.8157 -24.4332 36.2651 48.2041 -17.6498 41.3943 54.9772 -16.5391 46.5618 15.5962 -23.268 22.2158 35.3365 -30.2755 32.3296 32.8933 -29.9234 30.9731 29.962 -37.649 37.386 52.6082 -43.0436 47.4952 50.3543 -43.9169 48.291 4.4267 -31.5242 16.5211 24.8781 -37.6465 16.5387 29.5039 -41.4843 22.2465 -13.5524 -38.672 -24.1905 16.0465 15.5163 -40.5498 10.5594 22.7 -51.9633 0.0184 -0.0571 0.1062 -0.2932 3.3022 -1.559 0.1356 -0.0037 -0.0169 29.5915 19.1662 -16.0518 0.1336 0.0017 -0.1531 1.3089 3.4479 -20.7658 0.1086 -0.1548 -0.1038 -6.4253 -53.7585 -14.0811 40.5122 24.0525 -30.1995 45.0111 17.4109 -38.7969 49.9665 16.8811 -42.3878 -4.5075 5.3393 -2.8648 14.1519 17.8228 -9.6289 11.9533 16.9115 -8.6538 -9.5399 2.0961 -3.3514 10.9969 17.0581 -4.165 7.515 17.2788 -4.7489 -12.9664 7.9218 -3.804 8.8423 16.948 -0.6746 10.8797 21.8837 -3.8325 -8.987 33.6417 21.2633 20.0309 -14.3956 39.8643 14.0503 -20.2544 51.6687 -0.0875 -0.0481 0.0042 -6.9674 4.4766 -20.5551 -0.0345 -0.0278 -0.3338 18.528 3.4711 -2.4562 -11.8016 -3.2289 -7.8208 -0.0033 -0.1012 -0.051 0 0 0 0.0875 -0.0481 0.0042 -7.2194 7.0932 1.8827 0.0345 -0.0278 -0.3338 10.0653 -0.3266 1.0981 -3.5341 -2.6699 1.057 0.0033 -0.1012 -0.051 0 0 0 
